# xmcd CD database file
#
# Track frame offsets:
#	150
#	15492
#	34600
#	57662
#	77517
#	92647
#	106975
#	122057
#	141230
#	157152
#	175495
#	192937
#	211480
#	233762
#	251947
#
# Disc length: 3535 seconds
#
# Revision: 0
# Processed by: cddbd v1.5.1PL0 Copyright (c) Steve Scherf et al.
# Submitted via: CDex 1.51
#
DISCID=d10dcd0f
DTITLE=Various Artist - 失恋ソングス　レボエユーションズ
DYEAR=2004
DGENRE=JPop
TTITLE0=ぼくたちの失敗
TTITLE1=瞳はダイアモンド
TTITLE2=ジュリアン
TTITLE3=待つわ
TTITLE4=ウェディング・ベル
TTITLE5=22才の別れ
TTITLE6=悲しみTOOヤング
TTITLE7=もう逢えないかもしれない
TTITLE8=愛は眠らない
TTITLE9=バスルームから愛をこめて
TTITLE10=時代
TTITLE11=スペシャルボーイフレンド
TTITLE12=愛の迷路
TTITLE13=限界LOVERS
TTITLE14=ろくでなし
EXTD=YEAR: 2004
EXTT0=
EXTT1=
EXTT2=
EXTT3=
EXTT4=
EXTT5=
EXTT6=
EXTT7=
EXTT8=
EXTT9=
EXTT10=
EXTT11=
EXTT12=
EXTT13=
EXTT14=
PLAYORDER=
